PathFileType	4	(X/Y/Z)	/Users/itak/Documents/Research/Walk-IL/dataset/trc/00219_00009.trc
DataRate	CameraRate	NumFrames	NumMarkers	Units	OrigDataRate	OrigDataStartFrame	OrigNumFrames
100.000000	100.000000	4	53	mm	100.000000	59	479
Frame#	Time	RPSI			LPSI			L3			STRN			T10			C7			CLAV			RBAK			LBAK			LSHO			LUPA			LAEL			LAOL			LWTS			LWPS			LFRA			LIFD			LHPS			LHTS			RSHO			RUPA			RAEL			RAOL			RWTS			RWPS			RFRA			RIFD			RHTS			RHPS			RBHD			LFHD			RFHD			LBHD			LHIP			RHIP			RASI			LASI			LKNE			LTHI			LANK			LTIP			LTOE			LMT1			LMT5			LHEE			RKNE			RANK			RTIP			RTOE			RMT1			RMT5			RHEE			RTHI			
		X1	Y1	Z1	X2	Y2	Z2	X3	Y3	Z3	X4	Y4	Z4	X5	Y5	Z5	X6	Y6	Z6	X7	Y7	Z7	X8	Y8	Z8	X9	Y9	Z9	X10	Y10	Z10	X11	Y11	Z11	X12	Y12	Z12	X13	Y13	Z13	X14	Y14	Z14	X15	Y15	Z15	X16	Y16	Z16	X17	Y17	Z17	X18	Y18	Z18	X19	Y19	Z19	X20	Y20	Z20	X21	Y21	Z21	X22	Y22	Z22	X23	Y23	Z23	X24	Y24	Z24	X25	Y25	Z25	X26	Y26	Z26	X27	Y27	Z27	X28	Y28	Z28	X29	Y29	Z29	X30	Y30	Z30	X31	Y31	Z31	X32	Y32	Z32	X33	Y33	Z33	X34	Y34	Z34	X35	Y35	Z35	X36	Y36	Z36	X37	Y37	Z37	X38	Y38	Z38	X39	Y39	Z39	X40	Y40	Z40	X41	Y41	Z41	X42	Y42	Z42	X43	Y43	Z43	X44	Y44	Z44	X45	Y45	Z45	X46	Y46	Z46	X47	Y47	Z47	X48	Y48	Z48	X49	Y49	Z49	X50	Y50	Z50	X51	Y51	Z51	X52	Y52	Z52	X53	Y53	Z53	

60	0.59	-1146.687377929688	1044.725463867188	-237.7588348388672	-1147.91455078125	1052.440795898438	-117.3481597900391	-1142.027587890625	1132.096557617188	-162.4495239257812	-1384.70751953125	1322.985717773438	-150.4895172119141	-1130.619140625	1258.727172851562	-170.8510131835938	-1190.003540039062	1521.559814453125	-166.7940826416016	-1356.13916015625	1440.115966796875	-153.8925933837891	-1119.233764648438	1382.048828125	-244.9490509033203	-1163.664794921875	1483.394409179688	-56.27294540405273	-1249.2431640625	1488.500732421875	7.069628238677979	-1213.505249023438	1370.355102539062	86.30824279785156	-1221.178100585938	1160.395141601562	116.9254760742188	-1151.54052734375	1143.8740234375	65.22206115722656	-1331.137817382812	936.541259765625	56.92534255981445	-1302.715087890625	913.6879272460938	133.7896270751953	-1250.037719726562	1054.202880859375	129.1603546142578	-1350.097412109375	744.59326171875	55.46540451049805	-1328.138427734375	827.7150268554688	126.9484786987305	-1373.877685546875	838.3118286132812	77.60732269287109	-1261.010375976562	1478.943359375	-330.6399841308594	-1247.020385742188	1413.190673828125	-398.1727905273438	-1235.946166992188	1131.57275390625	-435.2835083007812	-1195.308227539062	1123.062133789062	-349.2182006835938	-1376.282958984375	921.5613403320312	-387.9425354003906	-1326.8193359375	906.3180541992188	-454.0282287597656	-1264.684204101562	1063.81005859375	-446.3804321289062	-1391.748291015625	727.6510620117188	-381.4766235351562	-1416.35888671875	800.3397216796875	-400.7877197265625	-1365.840942382812	799.2676391601562	-452.9076538085938	-1218.298217773438	1670.216674804688	-222.4396514892578	-1406.147705078125	1739.544799804688	-112.6987686157227	-1414.950317382812	1733.013916015625	-211.8871002197266	-1250.229858398438	1689.496337890625	-86.81429290771484	-1251.699462890625	995.2017822265625	23.31499481201172	-1249.380981445312	1006.22412109375	-342.3498229980469	-1341.918090820312	1055.199462890625	-306.4374389648438	-1350.960693359375	1039.177368164062	-25.89836120605469	-1320.503784179688	511.837890625	-22.96127319335938	-1308.211669921875	655.52392578125	9.107283592224121	-1219.667236328125	42.01737594604492	-35.66886520385742	-1265.28369140625	287.7115783691406	-19.03064155578613	-1435.687622070312	45.49835205078125	-88.72596740722656	-1367.961303710938	41.21581649780273	-132.4462585449219	-1347.454956054688	39.04793548583984	-15.93719863891602	-1159.140014648438	50.94655609130859	-88.15911102294922	-1314.098876953125	516.0357666015625	-290.4654541015625	-1203.19189453125	41.46646499633789	-259.2162780761719	-1318.093017578125	395.1225280761719	-269.16796875	-1414.903564453125	46.13679122924805	-211.6659240722656	-1356.525390625	44.41317367553711	-170.4292144775391	-1313.450805664062	40.78530120849609	-283.0331115722656	-1140.384155273438	43.50069046020508	-201.0735473632812	nan	nan	nan	
61	0.6	-1145.7275390625	1045.4951171875	-238.5073089599609	-1146.705322265625	1053.224365234375	-118.0832290649414	-1141.270751953125	1132.580078125	-163.2770843505859	-1384.111694335938	1323.226440429688	-150.7619323730469	-1130.165405273438	1259.14306640625	-171.9664154052734	-1189.665161132812	1521.945434570312	-167.9774475097656	-1355.622192382812	1440.349975585938	-154.3606719970703	-1119.159423828125	1382.40234375	-246.2792510986328	-1162.792602539062	1483.995483398438	-57.60316848754883	-1248.124633789062	1489.108032226562	6.160112857818604	-1211.4296875	1371.10205078125	85.14353179931641	-1217.89990234375	1161.277954101562	116.0796356201172	-1148.717529296875	1144.884765625	63.63198089599609	-1327.868774414062	937.1174926757812	57.56340789794922	-1298.482543945312	914.401123046875	134.1509857177734	-1246.2626953125	1055.028686523438	128.8068695068359	-1346.415405273438	745.1135864257812	56.60266494750977	-1323.782592773438	828.3960571289062	127.7287979125977	-1370.146362304688	838.8111572265625	78.84791564941406	-1261.2470703125	1479.177490234375	-331.530517578125	-1247.461547851562	1413.403442382812	-399.0878601074219	-1236.264892578125	1131.79345703125	-436.08203125	-1195.1669921875	1123.330444335938	-350.1522216796875	-1376.1767578125	921.6256103515625	-388.1032409667969	-1327.026611328125	906.4190063476562	-454.3750305175781	-1265.00048828125	1064.006225585938	-447.0351867675781	-1391.250732421875	727.6648559570312	-381.421142578125	-1416.01611328125	800.286865234375	-400.6441345214844	-1365.826416015625	799.2944946289062	-453.01708984375	-1218.061157226562	1670.903198242188	-223.0242462158203	-1406.01953125	1739.476440429688	-113.0711975097656	-1414.849243164062	1733.203369140625	-212.3206634521484	-1250.029052734375	1689.74169921875	-87.31330108642578	-1250.160888671875	995.4898681640625	22.67349052429199	-1248.412475585938	1006.616577148438	-342.9046630859375	-1341.054809570312	1055.177124023438	-306.9978942871094	-1349.487182617188	1039.206787109375	-26.37868499755859	-1320.494506835938	512.0205078125	-23.19697570800781	-1307.401123046875	655.6358032226562	8.87913990020752	-1219.687377929688	42.17115020751953	-35.71657180786133	-1265.345336914062	287.8807678222656	-19.14812469482422	-1435.725708007812	45.49770736694336	-88.70230102539062	-1367.954467773438	41.24350357055664	-132.4330596923828	-1347.453735351562	39.06952285766602	-15.95054054260254	-1159.246826171875	51.14422607421875	-88.17169189453125	-1312.718505859375	516.1376342773438	-291.1487426757812	-1203.16796875	41.39712905883789	-259.2837829589844	-1317.08642578125	395.2440185546875	-269.7453002929688	-1414.927124023438	46.09506988525391	-211.6963806152344	-1356.521118164062	44.4178352355957	-170.5002746582031	-1313.430908203125	40.72427749633789	-283.1947021484375	-1140.351318359375	43.51440811157227	-201.1284637451172	nan	nan	nan	
62	0.61	-1144.732421875	1046.312866210938	-239.2630157470703	-1145.450073242188	1054.031982421875	-118.8240203857422	-1140.470336914062	1133.091796875	-164.1089477539062	-1383.480224609375	1323.49267578125	-150.9998321533203	-1129.686767578125	1259.571044921875	-173.1116333007812	-1189.285766601562	1522.34423828125	-169.1907806396484	-1355.034545898438	1440.61083984375	-154.8012847900391	-1119.062133789062	1382.758422851562	-247.6373443603516	-1161.87255859375	1484.610107421875	-58.94633865356445	-1246.953735351562	1489.764892578125	5.220566749572754	-1209.28173828125	1371.9033203125	83.95088958740234	-1214.545654296875	1162.22021484375	115.1623916625977	-1145.84912109375	1145.958129882812	61.96934127807617	-1324.4716796875	937.7266235351562	58.18869018554688	-1294.110229492188	915.1531372070312	134.4604797363281	-1242.371337890625	1055.90625	128.3942413330078	-1342.489990234375	745.6467895507812	57.72904205322266	-1319.214721679688	829.1024780273438	128.4736022949219	-1366.24755859375	839.3233642578125	80.05542755126953	-1261.45556640625	1479.39697265625	-332.4186401367188	-1247.905151367188	1413.593627929688	-400.0005187988281	-1236.653686523438	1131.989868164062	-436.889404296875	-1195.038818359375	1123.577758789062	-351.078125	-1376.130249023438	921.6865234375	-388.2387084960938	-1327.2958984375	906.5111083984375	-454.7080078125	-1265.396728515625	1064.210693359375	-447.6795959472656	-1390.823852539062	727.6799926757812	-381.3500671386719	-1415.787109375	800.2422485351562	-400.4946594238281	-1365.890502929688	799.3125610351562	-453.1104125976562	-1217.78076171875	1671.556640625	-223.6802215576172	-1405.79052734375	1739.448486328125	-113.4817657470703	-1414.685180664062	1733.40380859375	-212.7924194335938	-1249.768798828125	1690.012084960938	-87.90772247314453	-1248.502197265625	995.7889404296875	22.03322601318359	-1247.27099609375	1007.054382324219	-343.5176391601562	-1340.133911132812	1055.152954101562	-307.5109558105469	-1347.94140625	1039.251342773438	-26.8380069732666	-1320.441284179688	512.2394409179688	-23.38606071472168	-1306.5498046875	655.77197265625	8.692645072937012	-1219.698852539062	42.33292770385742	-35.77708053588867	-1265.379638671875	288.0823059082031	-19.2383975982666	-1435.7626953125	45.49542617797852	-88.66976165771484	-1367.939453125	41.27722549438477	-132.41650390625	-1347.436889648438	39.1063346862793	-15.97684955596924	-1159.356689453125	51.36388397216797	-88.19725799560547	-1311.150268554688	516.2639770507812	-291.8813781738281	-1203.13037109375	41.29933929443359	-259.3778076171875	-1315.884643554688	395.3970031738281	-270.3515014648438	-1414.942260742188	46.06342315673828	-211.7318572998047	-1356.510131835938	44.43956756591797	-170.588623046875	-1313.3974609375	40.65669631958008	-283.3725280761719	-1140.27783203125	43.50234222412109	-201.2062072753906	nan	nan	nan	
63	0.62	-1143.68701171875	1047.161987304688	-240.0205688476562	-1144.145263671875	1054.851440429688	-119.5703506469727	-1139.602294921875	1133.625366210938	-164.9393463134766	-1382.813598632812	1323.7802734375	-151.2024841308594	-1129.16943359375	1260.010864257812	-174.2814025878906	-1188.861083984375	1522.754760742188	-170.4305267333984	-1354.377685546875	1440.893798828125	-155.2137298583984	-1118.929565429688	1383.11865234375	-249.0207672119141	-1160.899047851562	1485.244018554688	-60.31048202514648	-1245.725463867188	1490.4677734375	4.254478454589844	-1207.06298828125	1372.759887695312	82.73625183105469	-1211.11083984375	1163.2197265625	114.1866836547852	-1142.92626953125	1147.097045898438	60.25618743896484	-1320.935180664062	938.3604125976562	58.79713439941406	-1289.609130859375	915.9435424804688	134.7134094238281	-1238.367309570312	1056.834838867188	127.9268417358398	-1338.33447265625	746.19384765625	58.83064651489258	-1314.453369140625	829.8388671875	129.1686706542969	-1362.180419921875	839.852294921875	81.22628021240234	-1261.636474609375	1479.596801757812	-333.3004455566406	-1248.341796875	1413.759521484375	-400.9038391113281	-1237.113403320312	1132.158569335938	-437.7015380859375	-1194.9482421875	1123.796752929688	-351.9950256347656	-1376.14111328125	921.7396240234375	-388.3439331054688	-1327.6298828125	906.5922241210938	-455.0276489257812	-1265.864868164062	1064.41357421875	-448.3173217773438	-1390.48095703125	727.6922607421875	-381.2717590332031	-1415.67529296875	800.2039184570312	-400.3387756347656	-1366.036376953125	799.3208618164062	-453.1904296875	-1217.45703125	1672.178955078125	-224.4031066894531	-1405.476318359375	1739.456176757812	-113.9293365478516	-1414.464233398438	1733.609008789062	-213.2989196777344	-1249.446533203125	1690.304077148438	-88.59169769287109	-1246.705078125	996.0975341796875	21.39523887634277	-1245.890991210938	1007.537353515625	-344.2185974121094	-1339.138305664062	1055.128540039062	-307.9644470214844	-1346.31689453125	1039.316162109375	-27.26854705810547	-1320.346313476562	512.4991455078125	-23.5252799987793	-1305.659545898438	655.9392700195312	8.548159599304199	-1219.700073242188	42.49519348144531	-35.85611343383789	-1265.383422851562	288.3174133300781	-19.29906463623047	-1435.796142578125	45.48878860473633	-88.62638092041016	-1367.916015625	41.31603240966797	-132.3965454101562	-1347.401733398438	39.15846633911133	-16.01798057556152	-1159.4638671875	51.60126876831055	-88.23504638671875	-1309.408081054688	516.4191284179688	-292.6460876464844	-1203.081420898438	41.17302703857422	-259.4985656738281	-1314.500366210938	395.5867309570312	-270.974365234375	-1414.948364257812	46.04128646850586	-211.7706604003906	-1356.492919921875	44.47724151611328	-170.6941833496094	-1313.352661132812	40.58460998535156	-283.55810546875	-1140.161743164062	43.46433258056641	-201.3051605224609	nan	nan	nan	
